<mxfile host="app.diagrams.net" modified="2023-08-04T21:29:50.508Z" agent="Mozilla/5.0 (X11; Ubuntu; Linux x86_64; rv:109.0) Gecko/20100101 Firefox/115.0" etag="6hAA7CZAQwzOuxIi-5uh" version="21.6.6" type="github">
  <diagram id="C5RBs43oDa-KdzZeNtuy" name="Page-1">
    <mxGraphModel dx="610" dy="338" grid="0" gridSize="1" guides="1" tooltips="1" connect="1" arrows="1" fold="1" page="1" pageScale="1" pageWidth="1920" pageHeight="1200" math="0" shadow="0">
      <root>
        <mxCell id="WIyWlLk6GJQsqaUBKTNV-0" />
        <mxCell id="WIyWlLk6GJQsqaUBKTNV-1" parent="WIyWlLk6GJQsqaUBKTNV-0" />
        <mxCell id="8sbL9mn9Djze76Np5dDg-1" style="edgeStyle=orthogonalEdgeStyle;rounded=0;orthogonalLoop=1;jettySize=auto;html=1;exitX=1;exitY=0.5;exitDx=0;exitDy=0;entryX=-0.05;entryY=0.483;entryDx=0;entryDy=0;entryPerimeter=0;" edge="1" parent="WIyWlLk6GJQsqaUBKTNV-1" target="8sbL9mn9Djze76Np5dDg-0">
          <mxGeometry relative="1" as="geometry">
            <mxPoint x="270" y="210" as="sourcePoint" />
          </mxGeometry>
        </mxCell>
        <mxCell id="8sbL9mn9Djze76Np5dDg-5" value="Pool" style="swimlane;childLayout=stackLayout;resizeParent=1;resizeParentMax=0;horizontal=0;startSize=20;horizontalStack=0;html=1;" vertex="1" parent="WIyWlLk6GJQsqaUBKTNV-1">
          <mxGeometry x="50" y="76" width="757" height="360" as="geometry">
            <mxRectangle x="-230" y="292" width="32" height="55" as="alternateBounds" />
          </mxGeometry>
        </mxCell>
        <mxCell id="8sbL9mn9Djze76Np5dDg-6" value="&lt;div&gt;Project&lt;/div&gt;" style="swimlane;startSize=20;horizontal=0;html=1;" vertex="1" parent="8sbL9mn9Djze76Np5dDg-5">
          <mxGeometry x="20" width="737" height="120" as="geometry" />
        </mxCell>
        <mxCell id="8sbL9mn9Djze76Np5dDg-11" style="edgeStyle=orthogonalEdgeStyle;rounded=0;orthogonalLoop=1;jettySize=auto;html=1;exitX=1;exitY=0.5;exitDx=0;exitDy=0;" edge="1" parent="8sbL9mn9Djze76Np5dDg-6" target="8sbL9mn9Djze76Np5dDg-10">
          <mxGeometry relative="1" as="geometry">
            <mxPoint x="163" y="56" as="sourcePoint" />
          </mxGeometry>
        </mxCell>
        <mxCell id="8sbL9mn9Djze76Np5dDg-13" style="edgeStyle=orthogonalEdgeStyle;rounded=0;orthogonalLoop=1;jettySize=auto;html=1;exitX=1;exitY=0.5;exitDx=0;exitDy=0;" edge="1" parent="8sbL9mn9Djze76Np5dDg-6" target="8sbL9mn9Djze76Np5dDg-12">
          <mxGeometry relative="1" as="geometry">
            <mxPoint x="312.0000000000001" y="56" as="sourcePoint" />
          </mxGeometry>
        </mxCell>
        <mxCell id="8sbL9mn9Djze76Np5dDg-18" value="point urls.py to the app&#39;s urls.py to handle the URL path" style="rounded=1;whiteSpace=wrap;html=1;" vertex="1" parent="8sbL9mn9Djze76Np5dDg-6">
          <mxGeometry x="325" y="28" width="120" height="60" as="geometry" />
        </mxCell>
        <mxCell id="8sbL9mn9Djze76Np5dDg-7" value="&lt;div&gt;App&lt;/div&gt;" style="swimlane;startSize=20;horizontal=0;html=1;" vertex="1" parent="8sbL9mn9Djze76Np5dDg-5">
          <mxGeometry x="20" y="120" width="737" height="120" as="geometry" />
        </mxCell>
        <mxCell id="8sbL9mn9Djze76Np5dDg-19" style="edgeStyle=orthogonalEdgeStyle;rounded=0;orthogonalLoop=1;jettySize=auto;html=1;exitX=1;exitY=0.5;exitDx=0;exitDy=0;" edge="1" parent="8sbL9mn9Djze76Np5dDg-7" source="8sbL9mn9Djze76Np5dDg-15" target="8sbL9mn9Djze76Np5dDg-16">
          <mxGeometry relative="1" as="geometry" />
        </mxCell>
        <mxCell id="8sbL9mn9Djze76Np5dDg-15" value="Create a view in views.py" style="rounded=1;whiteSpace=wrap;html=1;" vertex="1" parent="8sbL9mn9Djze76Np5dDg-7">
          <mxGeometry x="35" y="30" width="120" height="60" as="geometry" />
        </mxCell>
        <mxCell id="8sbL9mn9Djze76Np5dDg-20" style="edgeStyle=orthogonalEdgeStyle;rounded=0;orthogonalLoop=1;jettySize=auto;html=1;exitX=1;exitY=0.5;exitDx=0;exitDy=0;" edge="1" parent="8sbL9mn9Djze76Np5dDg-7" source="8sbL9mn9Djze76Np5dDg-16" target="8sbL9mn9Djze76Np5dDg-17">
          <mxGeometry relative="1" as="geometry" />
        </mxCell>
        <mxCell id="8sbL9mn9Djze76Np5dDg-16" value="&lt;div&gt;Create the urls.py file&lt;/div&gt;" style="rounded=1;whiteSpace=wrap;html=1;" vertex="1" parent="8sbL9mn9Djze76Np5dDg-7">
          <mxGeometry x="184" y="30" width="120" height="60" as="geometry" />
        </mxCell>
        <mxCell id="8sbL9mn9Djze76Np5dDg-17" value="In urls.py add the path in urlpatterns" style="rounded=1;whiteSpace=wrap;html=1;" vertex="1" parent="8sbL9mn9Djze76Np5dDg-7">
          <mxGeometry x="325" y="30" width="120" height="60" as="geometry" />
        </mxCell>
        <mxCell id="8sbL9mn9Djze76Np5dDg-8" value="" style="swimlane;startSize=20;horizontal=0;html=1;" vertex="1" parent="8sbL9mn9Djze76Np5dDg-5">
          <mxGeometry x="20" y="240" width="737" height="120" as="geometry" />
        </mxCell>
        <mxCell id="8sbL9mn9Djze76Np5dDg-22" value="browser should display http://127.0.0.1:8000/apppath/" style="rounded=1;whiteSpace=wrap;html=1;" vertex="1" parent="8sbL9mn9Djze76Np5dDg-8">
          <mxGeometry x="497" y="30" width="120" height="60" as="geometry" />
        </mxCell>
        <mxCell id="8sbL9mn9Djze76Np5dDg-21" style="edgeStyle=orthogonalEdgeStyle;rounded=0;orthogonalLoop=1;jettySize=auto;html=1;exitX=0.5;exitY=0;exitDx=0;exitDy=0;" edge="1" parent="8sbL9mn9Djze76Np5dDg-5" source="8sbL9mn9Djze76Np5dDg-17" target="8sbL9mn9Djze76Np5dDg-18">
          <mxGeometry relative="1" as="geometry" />
        </mxCell>
        <mxCell id="8sbL9mn9Djze76Np5dDg-23" style="edgeStyle=orthogonalEdgeStyle;rounded=0;orthogonalLoop=1;jettySize=auto;html=1;exitX=1;exitY=0.5;exitDx=0;exitDy=0;entryX=0;entryY=0.5;entryDx=0;entryDy=0;" edge="1" parent="8sbL9mn9Djze76Np5dDg-5" source="8sbL9mn9Djze76Np5dDg-18" target="8sbL9mn9Djze76Np5dDg-22">
          <mxGeometry relative="1" as="geometry" />
        </mxCell>
      </root>
    </mxGraphModel>
  </diagram>
</mxfile>
